<svg xmlns="http://www.w3.org/2000/svg" width="200" height="200" viewBox="0 0 200 200" role="img" aria-labelledby="ground-title ground-desc">
  <title id="ground-title">GroundPlane</title>
  <desc id="ground-desc">A hexagonal foundation of primitive contracts, leases, fences, checkpoints, persistence policy, and Postgres outbox layers.</desc>
  <defs>
    <clipPath id="ground-hex">
      <path d="M100 4 L183 52 L183 148 L100 196 L17 148 L17 52 Z"/>
    </clipPath>
    <linearGradient id="ground-bg" x1="27" y1="23" x2="171" y2="181" gradientUnits="userSpaceOnUse">
      <stop offset="0" stop-color="#1f4033"/>
      <stop offset="0.56" stop-color="#182716"/>
      <stop offset="1" stop-color="#0a0d0a"/>
    </linearGradient>
    <linearGradient id="ground-strata" x1="25" y1="104" x2="175" y2="174" gradientUnits="userSpaceOnUse">
      <stop offset="0" stop-color="#c99a5b"/>
      <stop offset="0.48" stop-color="#7c5a35"/>
      <stop offset="1" stop-color="#3a281a"/>
    </linearGradient>
    <filter id="ground-shadow" x="-20%" y="-20%" width="140%" height="140%">
      <feDropShadow dx="0" dy="8" stdDeviation="5" flood-color="#000000" flood-opacity="0.3"/>
    </filter>
  </defs>
  <g clip-path="url(#ground-hex)">
    <path d="M100 4 L183 52 L183 148 L100 196 L17 148 L17 52 Z" fill="url(#ground-bg)"/>
    <path d="M23 117 C51 104 70 113 98 104 C127 95 146 102 177 89 L177 190 L23 190 Z" fill="url(#ground-strata)"/>
    <path d="M24 136 C53 125 76 134 101 125 C128 116 148 124 176 111" fill="none" stroke="#e0bd78" stroke-width="3" opacity="0.75"/>
    <path d="M25 156 C54 145 76 154 101 145 C129 136 148 144 175 131" fill="none" stroke="#3a281a" stroke-width="3" opacity="0.75"/>
    <g filter="url(#ground-shadow)">
      <path d="M52 83 H148 L159 115 H41 Z" fill="#d9eecf" stroke="#f8fff2" stroke-width="2.5"/>
      <path d="M66 83 L74 62 H126 L134 83" fill="#92c47f" stroke="#f8fff2" stroke-width="2.5"/>
      <path d="M76 114 V146 M100 114 V160 M124 114 V146" stroke="#f8fff2" stroke-width="5" stroke-linecap="round"/>
    </g>
    <g fill="#102216" stroke="#f8fff2" stroke-width="2">
      <path d="M61 93 H82 V108 H61 Z"/>
      <path d="M89 93 H111 V108 H89 Z"/>
      <path d="M118 93 H139 V108 H118 Z"/>
      <circle cx="60" cy="58" r="9"/>
      <circle cx="140" cy="58" r="9"/>
    </g>
    <g stroke="#f8fff2" stroke-width="2" stroke-linecap="round">
      <path d="M66 101 H77 M94 101 H106 M123 101 H134"/>
      <path d="M56 58 H64 M136 58 H144"/>
    </g>
    <g fill="none" stroke-linecap="round" stroke-linejoin="round">
      <path d="M60 58 C70 45 85 40 100 40 C115 40 130 45 140 58" stroke="#aaff98" stroke-width="4"/>
      <path d="M100 40 V26" stroke="#aaff98" stroke-width="4"/>
      <path d="M91 27 H109" stroke="#aaff98" stroke-width="4"/>
      <path d="M43 124 L55 137 L73 116" stroke="#aaff98" stroke-width="4"/>
      <path d="M130 140 H158" stroke="#e0bd78" stroke-width="4"/>
    </g>
    <path d="M100 4 L183 52 L183 148 L100 196 L17 148 L17 52 Z" fill="none" stroke="#e8ffd8" stroke-width="4"/>
  </g>
</svg>
